<?xml version="1.0" encoding="iso-8859-1"?>
<!-- Generator: Adobe Illustrator 16.0.0, SVG Export Plug-In . SVG Version: 6.00 Build 0)  -->
<!DOCTYPE svg PUBLIC "-//W3C//DTD SVG 1.1//EN" "http://www.w3.org/Graphics/SVG/1.1/DTD/svg11.dtd">
<svg version="1.1" id="Capa_1" xmlns="http://www.w3.org/2000/svg" xmlns:xlink="http://www.w3.org/1999/xlink" x="0px" y="0px"
	 width="97.617px" height="97.617px" viewBox="0 0 97.617 97.617" style="enable-background:new 0 0 97.617 97.617;"
	 xml:space="preserve">
<g>
	<path d="M97.031,0.586C96.656,0.211,96.147,0,95.617,0h-0.002L62.507,0.026c-0.532,0-1.044,0.213-1.42,0.592L0.579,61.674
		c-0.773,0.781-0.771,2.043,0.007,2.821l32.536,32.536c0.392,0.391,0.902,0.586,1.414,0.586c0.509,0,1.019-0.193,1.408-0.58
		L97,36.527c0.378-0.375,0.593-0.886,0.593-1.419l0.024-33.106C97.617,1.471,97.407,0.962,97.031,0.586z M81.101,27.645
		c-3.068,3.066-8.062,3.066-11.127,0c-3.068-3.068-3.068-8.062,0-11.129c3.065-3.066,8.059-3.066,11.127,0
		C84.167,19.583,84.167,24.577,81.101,27.645z"/>
</g>
<g>
</g>
<g>
</g>
<g>
</g>
<g>
</g>
<g>
</g>
<g>
</g>
<g>
</g>
<g>
</g>
<g>
</g>
<g>
</g>
<g>
</g>
<g>
</g>
<g>
</g>
<g>
</g>
<g>
</g>
</svg>
